<svg xmlns="http://www.w3.org/2000/svg" xml:space="preserve" width="16" height="16" data-version="2">
    <path fill="tan" d="M8.07 5.12q0 .27-.1.49-.1.21-.27.37-.18.16-.42.24-.24.09-.52.09-.3 0-.52-.08-.22-.07-.37-.19-.14-.11-.23-.26-.09-.14-.13-.27-.05-.14-.06-.25-.01-.11-.01-.17.06.11.15.14.08.03.14.03.15 0 .21-.09Q6 5.09 6 5q0-.06-.02-.12-.02-.07-.09-.12-.06-.06-.16-.1-.11-.03-.26-.03-.11 0-.22.04-.12.04-.21.12-.09.08-.15.21-.06.12-.06.29 0 .16.07.32.06.16.18.3.11.13.27.25.16.11.35.19.29.12.61.24.31.12.61.26.29.13.55.31.26.18.46.43t.31.58q.12.33.12.77 0 .63-.26 1.15-.25.51-.68.88-.43.37-.99.57-.56.2-1.17.2-.56 0-1.05-.16-.5-.16-.88-.45-.38-.28-.6-.67-.22-.38-.22-.83 0-.32.11-.57.1-.25.29-.41.19-.17.45-.25.25-.08.54-.08.23 0 .45.05t.41.14q.19.1.34.23.15.14.24.31-.11-.03-.19-.03-.15 0-.24.08-.08.09-.08.26 0 .09.04.17.04.08.11.14.07.05.16.09.09.03.18.03.11 0 .2-.05.09-.04.16-.12.07-.07.11-.16.04-.1.04-.19 0-.19-.12-.38-.11-.2-.33-.35-.42-.26-.79-.44-.37-.19-.69-.36-.31-.17-.56-.34-.25-.17-.42-.4-.18-.22-.27-.53-.09-.3-.09-.73 0-.52.2-.97.2-.45.58-.78.38-.34.92-.53.55-.2 1.25-.2t1.19.17q.49.17.8.44.3.27.44.6.13.33.13.65" paint-order="stroke"/>
    <path fill="tan" d="M13.58 9.16q0 .6-.25 1.02-.25.41-.66.68-.41.27-.95.39-.53.13-1.1.16-.36-.02-.68-.03-.14-.01-.29-.01-.14 0-.28-.01H8.9q-.35.01-.73.01-.38.01-.75.04.25-.33.4-.84.15-.51.23-1.1.09-.59.13-1.21.03-.63.03-1.17 0-.23-.01-.56-.01-.33-.03-.7-.02-.38-.06-.76-.04-.38-.1-.71-.07-.33-.17-.58-.09-.25-.23-.36.39.06.75.08.37.02.63.02.22 0 .4-.01l.35-.02.35-.02q.19-.01.42-.01.35.01.71.04.36.04.68.12.33.09.61.24.28.14.49.38.21.24.33.57.12.33.12.78 0 .25-.06.49t-.2.47q-.14.23-.36.44-.22.22-.55.4.69.28 1 .73.3.44.3 1.04m-3.2-2.42q.11-.08.26-.22.14-.14.27-.3.13-.16.22-.34.09-.18.09-.34 0-.17-.1-.28-.1-.11-.22-.11-.17 0-.28.16-.1.15-.15.37-.06.21-.08.43-.02.21-.02.34v.14q0 .07.01.15m.74 2.67q0-.19-.06-.39-.06-.19-.16-.38t-.22-.37q-.13-.18-.26-.34-.09.24-.11.48-.02.23-.02.42 0 .28.03.46.04.19.11.3.07.11.16.16t.2.05q.14 0 .23-.1.1-.1.1-.29" paint-order="stroke"/>
</svg>
